{
    "asset" : {
        "generator" : "Khronos glTF Blender I/O v1.6.16",
        "version" : "2.0"
    },
    "scene" : 0,
    "scenes" : [
        {
            "name" : "Scene",
            "nodes" : [
                0,
                1,
                2,
                3,
                4,
                5,
                6,
                7,
                8,
                9
            ]
        }
    ],
    "nodes" : [
        {
            "name" : "Light",
            "rotation" : [
                0.4803687632083893,
                0.6075553894042969,
                -0.17290833592414856,
                0.6084612011909485
            ],
            "translation" : [
                6.385808944702148,
                1.4907443523406982,
                3.1072916984558105
            ]
        },
        {
            "name" : "Camera",
            "rotation" : [
                0.6423967480659485,
                0.074534572660923,
                -0.06298813968896866,
                0.7601338624954224
            ],
            "translation" : [
                1.5669397115707397,
                1.3642582893371582,
                7.576046943664551
            ]
        },
        {
            "mesh" : 0,
            "name" : "body",
            "scale" : [
                1.0162140130996704,
                1.1652292013168335,
                1
            ]
        },
        {
            "mesh" : 1,
            "name" : "mouth",
            "rotation" : [
                -0.01033311989158392,
                0.0009990535909309983,
                3.9984090108191594e-05,
                0.999946117401123
            ],
            "scale" : [
                1.0489158630371094,
                1.048915982246399,
                1.048915982246399
            ],
            "translation" : [
                0.0018847197061404586,
                0.1627664864063263,
                0.947741687297821
            ]
        },
        {
            "mesh" : 2,
            "name" : "foot1",
            "translation" : [
                0.48722827434539795,
                -1.111328363418579,
                0.15192945301532745
            ]
        },
        {
            "mesh" : 3,
            "name" : "foot2",
            "translation" : [
                -0.6512094736099243,
                -0.99297696352005,
                0.22323302924633026
            ]
        },
        {
            "mesh" : 4,
            "name" : "baseeye",
            "rotation" : [
                -0.39400652050971985,
                0.17968831956386566,
                0.12463319301605225,
                0.8927136063575745
            ],
            "scale" : [
                0.7032139301300049,
                0.7032139301300049,
                0.7032139301300049
            ]
        },
        {
            "mesh" : 5,
            "name" : "baseeye.001",
            "rotation" : [
                -0.38528162240982056,
                0.12764136493206024,
                0.14048905670642853,
                0.9030662178993225
            ],
            "scale" : [
                0.3566344082355499,
                0.3566344380378723,
                0.3566344380378723
            ]
        },
        {
            "mesh" : 6,
            "name" : "body.under",
            "scale" : [
                1.0162140130996704,
                1.1652292013168335,
                1
            ]
        },
        {
            "mesh" : 7,
            "name" : "body.mid",
            "scale" : [
                1.0162140130996704,
                1.1652292013168335,
                1
            ]
        }
    ],
    "materials" : [
        {
            "doubleSided" : true,
            "name" : "\u30de\u30c6\u30ea\u30a2\u30eb",
            "pbrMetallicRoughness" : {
                "baseColorFactor" : [
                    0.8000000715255737,
                    0.0025177360512316227,
                    0.005336555186659098,
                    1
                ],
                "metallicFactor" : 0,
                "roughnessFactor" : 0.5
            }
        },
        {
            "doubleSided" : true,
            "name" : "\u30de\u30c6\u30ea\u30a2\u30eb.001",
            "pbrMetallicRoughness" : {
                "baseColorFactor" : [
                    0.8000000715255737,
                    0.23157478868961334,
                    0.010370097123086452,
                    1
                ],
                "metallicFactor" : 0,
                "roughnessFactor" : 0.5
            }
        },
        {
            "doubleSided" : true,
            "name" : "\u30de\u30c6\u30ea\u30a2\u30eb.004",
            "pbrMetallicRoughness" : {
                "baseColorFactor" : [
                    0.030927477404475212,
                    0.007546001113951206,
                    0.0024761748500168324,
                    1
                ],
                "metallicFactor" : 0,
                "roughnessFactor" : 0.5
            }
        },
        {
            "doubleSided" : true,
            "name" : "\u30de\u30c6\u30ea\u30a2\u30eb.005",
            "pbrMetallicRoughness" : {
                "baseColorFactor" : [
                    0.800000011920929,
                    0.800000011920929,
                    0.800000011920929,
                    1
                ],
                "metallicFactor" : 0,
                "roughnessFactor" : 0.5
            }
        },
        {
            "doubleSided" : true,
            "name" : "\u30de\u30c6\u30ea\u30a2\u30eb.003",
            "pbrMetallicRoughness" : {
                "baseColorFactor" : [
                    0,
                    0,
                    0,
                    1
                ],
                "metallicFactor" : 0,
                "roughnessFactor" : 0.5
            }
        },
        {
            "doubleSided" : true,
            "name" : "\u30de\u30c6\u30ea\u30a2\u30eb.002",
            "pbrMetallicRoughness" : {
                "baseColorFactor" : [
                    0.1617860645055771,
                    0.03428938612341881,
                    0.00492915278300643,
                    1
                ],
                "metallicFactor" : 0,
                "roughnessFactor" : 0.5
            }
        }
    ],
    "meshes" : [
        {
            "name" : "\u7403",
            "primitives" : [
                {
                    "attributes" : {
                        "POSITION" : 0,
                        "NORMAL" : 1,
                        "TEXCOORD_0" : 2
                    },
                    "indices" : 3,
                    "material" : 0
                }
            ]
        },
        {
            "name" : "\u7acb\u65b9\u4f53",
            "primitives" : [
                {
                    "attributes" : {
                        "POSITION" : 4,
                        "NORMAL" : 5,
                        "TEXCOORD_0" : 6
                    },
                    "indices" : 7,
                    "material" : 1
                }
            ]
        },
        {
            "name" : "\u7acb\u65b9\u4f53.001",
            "primitives" : [
                {
                    "attributes" : {
                        "POSITION" : 8,
                        "NORMAL" : 9,
                        "TEXCOORD_0" : 10
                    },
                    "indices" : 11,
                    "material" : 2
                }
            ]
        },
        {
            "name" : "\u7acb\u65b9\u4f53.002",
            "primitives" : [
                {
                    "attributes" : {
                        "POSITION" : 12,
                        "NORMAL" : 13,
                        "TEXCOORD_0" : 14
                    },
                    "indices" : 15,
                    "material" : 2
                }
            ]
        },
        {
            "name" : "\u5e73\u9762.001",
            "primitives" : [
                {
                    "attributes" : {
                        "POSITION" : 16,
                        "NORMAL" : 17,
                        "TEXCOORD_0" : 18
                    },
                    "indices" : 19,
                    "material" : 3
                }
            ]
        },
        {
            "name" : "\u5e73\u9762.003",
            "primitives" : [
                {
                    "attributes" : {
                        "POSITION" : 20,
                        "NORMAL" : 21,
                        "TEXCOORD_0" : 22
                    },
                    "indices" : 19,
                    "material" : 4
                }
            ]
        },
        {
            "name" : "\u7403.001",
            "primitives" : [
                {
                    "attributes" : {
                        "POSITION" : 23,
                        "NORMAL" : 24,
                        "TEXCOORD_0" : 25
                    },
                    "indices" : 26,
                    "material" : 5
                }
            ]
        },
        {
            "name" : "\u7403.002",
            "primitives" : [
                {
                    "attributes" : {
                        "POSITION" : 27,
                        "NORMAL" : 28,
                        "TEXCOORD_0" : 29
                    },
                    "indices" : 30,
                    "material" : 1
                }
            ]
        }
    ],
    "accessors" : [
        {
            "bufferView" : 0,
            "componentType" : 5126,
            "count" : 296,
            "max" : [
                0.9999997019767761,
                1,
                0.9999994039535522
            ],
            "min" : [
                -0.9999990463256836,
                -4.371138828673793e-08,
                -0.9999987483024597
            ],
            "type" : "VEC3"
        },
        {
            "bufferView" : 1,
            "componentType" : 5126,
            "count" : 296,
            "type" : "VEC3"
        },
        {
            "bufferView" : 2,
            "componentType" : 5126,
            "count" : 296,
            "type" : "VEC2"
        },
        {
            "bufferView" : 3,
            "componentType" : 5123,
            "count" : 1440,
            "type" : "SCALAR"
        },
        {
            "bufferView" : 4,
            "componentType" : 5126,
            "count" : 14,
            "max" : [
                0.7081276178359985,
                0.8350574970245361,
                0.7610236406326294
            ],
            "min" : [
                -0.7081276178359985,
                -0.552782416343689,
                -0.8350574970245361
            ],
            "type" : "VEC3"
        },
        {
            "bufferView" : 5,
            "componentType" : 5126,
            "count" : 14,
            "type" : "VEC3"
        },
        {
            "bufferView" : 6,
            "componentType" : 5126,
            "count" : 14,
            "type" : "VEC2"
        },
        {
            "bufferView" : 7,
            "componentType" : 5123,
            "count" : 36,
            "type" : "SCALAR"
        },
        {
            "bufferView" : 8,
            "componentType" : 5126,
            "count" : 38,
            "max" : [
                0.8211033940315247,
                0.2879086136817932,
                0.8166435360908508
            ],
            "min" : [
                -0.5054224729537964,
                -0.22694243490695953,
                -0.6075116395950317
            ],
            "type" : "VEC3"
        },
        {
            "bufferView" : 9,
            "componentType" : 5126,
            "count" : 38,
            "type" : "VEC3"
        },
        {
            "bufferView" : 10,
            "componentType" : 5126,
            "count" : 38,
            "type" : "VEC2"
        },
        {
            "bufferView" : 11,
            "componentType" : 5123,
            "count" : 108,
            "type" : "SCALAR"
        },
        {
            "bufferView" : 12,
            "componentType" : 5126,
            "count" : 38,
            "max" : [
                0.475737988948822,
                0.4797345995903015,
                0.9086989164352417
            ],
            "min" : [
                -0.8567033410072327,
                -0.33765608072280884,
                -0.5194985866546631
            ],
            "type" : "VEC3"
        },
        {
            "bufferView" : 13,
            "componentType" : 5126,
            "count" : 38,
            "type" : "VEC3"
        },
        {
            "bufferView" : 14,
            "componentType" : 5126,
            "count" : 38,
            "type" : "VEC2"
        },
        {
            "bufferView" : 15,
            "componentType" : 5123,
            "count" : 108,
            "type" : "SCALAR"
        },
        {
            "bufferView" : 16,
            "componentType" : 5126,
            "count" : 4,
            "max" : [
                0.3788699507713318,
                0.3788699507713318,
                1.656093218116439e-08
            ],
            "min" : [
                -0.3788699507713318,
                -0.3788699507713318,
                -1.656093218116439e-08
            ],
            "type" : "VEC3"
        },
        {
            "bufferView" : 17,
            "componentType" : 5126,
            "count" : 4,
            "type" : "VEC3"
        },
        {
            "bufferView" : 18,
            "componentType" : 5126,
            "count" : 4,
            "type" : "VEC2"
        },
        {
            "bufferView" : 19,
            "componentType" : 5123,
            "count" : 6,
            "type" : "SCALAR"
        },
        {
            "bufferView" : 20,
            "componentType" : 5126,
            "count" : 4,
            "max" : [
                0.3788699507713318,
                0.3788699507713318,
                1.656093218116439e-08
            ],
            "min" : [
                -0.3788699507713318,
                -0.3788699507713318,
                -1.656093218116439e-08
            ],
            "type" : "VEC3"
        },
        {
            "bufferView" : 21,
            "componentType" : 5126,
            "count" : 4,
            "type" : "VEC3"
        },
        {
            "bufferView" : 22,
            "componentType" : 5126,
            "count" : 4,
            "type" : "VEC2"
        },
        {
            "bufferView" : 23,
            "componentType" : 5126,
            "count" : 263,
            "max" : [
                0.9807851314544678,
                -0.19509032368659973,
                0.9807849526405334
            ],
            "min" : [
                -0.9807847738265991,
                -1,
                -0.9807846546173096
            ],
            "type" : "VEC3"
        },
        {
            "bufferView" : 24,
            "componentType" : 5126,
            "count" : 263,
            "type" : "VEC3"
        },
        {
            "bufferView" : 25,
            "componentType" : 5126,
            "count" : 263,
            "type" : "VEC2"
        },
        {
            "bufferView" : 26,
            "componentType" : 5123,
            "count" : 1248,
            "type" : "SCALAR"
        },
        {
            "bufferView" : 27,
            "componentType" : 5126,
            "count" : 66,
            "max" : [
                0.9999997019767761,
                -4.371138828673793e-08,
                0.9999994039535522
            ],
            "min" : [
                -0.9999990463256836,
                -0.19509032368659973,
                -0.9999987483024597
            ],
            "type" : "VEC3"
        },
        {
            "bufferView" : 28,
            "componentType" : 5126,
            "count" : 66,
            "type" : "VEC3"
        },
        {
            "bufferView" : 29,
            "componentType" : 5126,
            "count" : 66,
            "type" : "VEC2"
        },
        {
            "bufferView" : 30,
            "componentType" : 5123,
            "count" : 192,
            "type" : "SCALAR"
        }
    ],
    "bufferViews" : [
        {
            "buffer" : 0,
            "byteLength" : 3552,
            "byteOffset" : 0
        },
        {
            "buffer" : 0,
            "byteLength" : 3552,
            "byteOffset" : 3552
        },
        {
            "buffer" : 0,
            "byteLength" : 2368,
            "byteOffset" : 7104
        },
        {
            "buffer" : 0,
            "byteLength" : 2880,
            "byteOffset" : 9472
        },
        {
            "buffer" : 0,
            "byteLength" : 168,
            "byteOffset" : 12352
        },
        {
            "buffer" : 0,
            "byteLength" : 168,
            "byteOffset" : 12520
        },
        {
            "buffer" : 0,
            "byteLength" : 112,
            "byteOffset" : 12688
        },
        {
            "buffer" : 0,
            "byteLength" : 72,
            "byteOffset" : 12800
        },
        {
            "buffer" : 0,
            "byteLength" : 456,
            "byteOffset" : 12872
        },
        {
            "buffer" : 0,
            "byteLength" : 456,
            "byteOffset" : 13328
        },
        {
            "buffer" : 0,
            "byteLength" : 304,
            "byteOffset" : 13784
        },
        {
            "buffer" : 0,
            "byteLength" : 216,
            "byteOffset" : 14088
        },
        {
            "buffer" : 0,
            "byteLength" : 456,
            "byteOffset" : 14304
        },
        {
            "buffer" : 0,
            "byteLength" : 456,
            "byteOffset" : 14760
        },
        {
            "buffer" : 0,
            "byteLength" : 304,
            "byteOffset" : 15216
        },
        {
            "buffer" : 0,
            "byteLength" : 216,
            "byteOffset" : 15520
        },
        {
            "buffer" : 0,
            "byteLength" : 48,
            "byteOffset" : 15736
        },
        {
            "buffer" : 0,
            "byteLength" : 48,
            "byteOffset" : 15784
        },
        {
            "buffer" : 0,
            "byteLength" : 32,
            "byteOffset" : 15832
        },
        {
            "buffer" : 0,
            "byteLength" : 12,
            "byteOffset" : 15864
        },
        {
            "buffer" : 0,
            "byteLength" : 48,
            "byteOffset" : 15876
        },
        {
            "buffer" : 0,
            "byteLength" : 48,
            "byteOffset" : 15924
        },
        {
            "buffer" : 0,
            "byteLength" : 32,
            "byteOffset" : 15972
        },
        {
            "buffer" : 0,
            "byteLength" : 3156,
            "byteOffset" : 16004
        },
        {
            "buffer" : 0,
            "byteLength" : 3156,
            "byteOffset" : 19160
        },
        {
            "buffer" : 0,
            "byteLength" : 2104,
            "byteOffset" : 22316
        },
        {
            "buffer" : 0,
            "byteLength" : 2496,
            "byteOffset" : 24420
        },
        {
            "buffer" : 0,
            "byteLength" : 792,
            "byteOffset" : 26916
        },
        {
            "buffer" : 0,
            "byteLength" : 792,
            "byteOffset" : 27708
        },
        {
            "buffer" : 0,
            "byteLength" : 528,
            "byteOffset" : 28500
        },
        {
            "buffer" : 0,
            "byteLength" : 384,
            "byteOffset" : 29028
        }
    ],
    "buffers" : [
        {
            "byteLength" : 29412,
            "uri" : "data:application/octet-stream;base64,"
        }
    ]
}
