{
    "asset" : {
        "generator" : "Khronos glTF Blender I/O v1.6.16",
        "version" : "2.0"
    },
    "scene" : 0,
    "scenes" : [
        {
            "name" : "Scene",
            "nodes" : [
                0,
                1,
                2,
                3,
                4,
                5,
                6,
                7,
                8,
                9
            ]
        }
    ],
    "nodes" : [
        {
            "name" : "Light",
            "rotation" : [
                0.4803687632083893,
                0.6075553894042969,
                -0.17290833592414856,
                0.6084612011909485
            ],
            "translation" : [
                6.385808944702148,
                1.4907443523406982,
                3.1072916984558105
            ]
        },
        {
            "name" : "Camera",
            "rotation" : [
                0.5886005163192749,
                0.12835830450057983,
                -0.09533335268497467,
                0.7924551367759705
            ],
            "translation" : [
                2.472465753555298,
                2.364396095275879,
                7.0949788093566895
            ]
        },
        {
            "mesh" : 0,
            "name" : "body",
            "scale" : [
                1.0162140130996704,
                1.1652292013168335,
                1
            ]
        },
        {
            "mesh" : 1,
            "name" : "mouth",
            "rotation" : [
                -0.01033311989158392,
                0.0009990535909309983,
                3.9984090108191594e-05,
                0.999946117401123
            ],
            "scale" : [
                1.0489158630371094,
                1.048915982246399,
                1.048915982246399
            ],
            "translation" : [
                0.0018847197061404586,
                0.1627664864063263,
                0.947741687297821
            ]
        },
        {
            "mesh" : 2,
            "name" : "foot1",
            "translation" : [
                0.48722827434539795,
                -1.111328363418579,
                0.15192945301532745
            ]
        },
        {
            "mesh" : 3,
            "name" : "foot2",
            "translation" : [
                -0.6512094736099243,
                -0.99297696352005,
                0.22323302924633026
            ]
        },
        {
            "mesh" : 4,
            "name" : "baseeye",
            "rotation" : [
                -0.39400652050971985,
                0.17968831956386566,
                0.12463319301605225,
                0.8927136063575745
            ],
            "scale" : [
                0.7032139301300049,
                0.7032139301300049,
                0.7032139301300049
            ]
        },
        {
            "mesh" : 5,
            "name" : "baseeye.001",
            "rotation" : [
                -0.38528162240982056,
                0.12764136493206024,
                0.14048905670642853,
                0.9030662178993225
            ],
            "scale" : [
                0.3566344082355499,
                0.3566344380378723,
                0.3566344380378723
            ]
        },
        {
            "mesh" : 6,
            "name" : "body.under",
            "scale" : [
                1.0162140130996704,
                1.1652292013168335,
                1
            ]
        },
        {
            "mesh" : 7,
            "name" : "body.mid",
            "scale" : [
                1.0162140130996704,
                1.1652292013168335,
                1
            ]
        }
    ],
    "materials" : [
        {
            "doubleSided" : true,
            "name" : "\u30de\u30c6\u30ea\u30a2\u30eb",
            "pbrMetallicRoughness" : {
                "baseColorFactor" : [
                    0.8000000715255737,
                    0.0025177360512316227,
                    0.005336555186659098,
                    1
                ],
                "metallicFactor" : 0,
                "roughnessFactor" : 0.5
            }
        },
        {
            "doubleSided" : true,
            "name" : "\u30de\u30c6\u30ea\u30a2\u30eb.001",
            "pbrMetallicRoughness" : {
                "baseColorFactor" : [
                    0.8000000715255737,
                    0.23157478868961334,
                    0.010370097123086452,
                    1
                ],
                "metallicFactor" : 0,
                "roughnessFactor" : 0.5
            }
        },
        {
            "doubleSided" : true,
            "name" : "\u30de\u30c6\u30ea\u30a2\u30eb.004",
            "pbrMetallicRoughness" : {
                "baseColorFactor" : [
                    0.030927477404475212,
                    0.007546001113951206,
                    0.0024761748500168324,
                    1
                ],
                "metallicFactor" : 0,
                "roughnessFactor" : 0.5
            }
        },
        {
            "doubleSided" : true,
            "name" : "\u30de\u30c6\u30ea\u30a2\u30eb.005",
            "pbrMetallicRoughness" : {
                "baseColorFactor" : [
                    0.800000011920929,
                    0.800000011920929,
                    0.800000011920929,
                    1
                ],
                "metallicFactor" : 0,
                "roughnessFactor" : 0.5
            }
        },
        {
            "doubleSided" : true,
            "name" : "\u30de\u30c6\u30ea\u30a2\u30eb.003",
            "pbrMetallicRoughness" : {
                "baseColorFactor" : [
                    0,
                    0,
                    0,
                    1
                ],
                "metallicFactor" : 0,
                "roughnessFactor" : 0.5
            }
        },
        {
            "doubleSided" : true,
            "name" : "\u30de\u30c6\u30ea\u30a2\u30eb.002",
            "pbrMetallicRoughness" : {
                "baseColorFactor" : [
                    0.1617860645055771,
                    0.03428938612341881,
                    0.00492915278300643,
                    1
                ],
                "metallicFactor" : 0,
                "roughnessFactor" : 0.5
            }
        }
    ],
    "meshes" : [
        {
            "name" : "\u7403",
            "primitives" : [
                {
                    "attributes" : {
                        "POSITION" : 0,
                        "NORMAL" : 1,
                        "TANGENT" : 2,
                        "TEXCOORD_0" : 3
                    },
                    "indices" : 4,
                    "material" : 0
                }
            ]
        },
        {
            "name" : "\u7acb\u65b9\u4f53",
            "primitives" : [
                {
                    "attributes" : {
                        "POSITION" : 5,
                        "NORMAL" : 6,
                        "TANGENT" : 7,
                        "TEXCOORD_0" : 8
                    },
                    "indices" : 9,
                    "material" : 1
                }
            ]
        },
        {
            "name" : "\u7acb\u65b9\u4f53.001",
            "primitives" : [
                {
                    "attributes" : {
                        "POSITION" : 10,
                        "NORMAL" : 11,
                        "TANGENT" : 12,
                        "TEXCOORD_0" : 13
                    },
                    "indices" : 14,
                    "material" : 2
                }
            ]
        },
        {
            "name" : "\u7acb\u65b9\u4f53.002",
            "primitives" : [
                {
                    "attributes" : {
                        "POSITION" : 15,
                        "NORMAL" : 16,
                        "TANGENT" : 17,
                        "TEXCOORD_0" : 18
                    },
                    "indices" : 19,
                    "material" : 2
                }
            ]
        },
        {
            "name" : "\u5e73\u9762.001",
            "primitives" : [
                {
                    "attributes" : {
                        "POSITION" : 20,
                        "NORMAL" : 21,
                        "TANGENT" : 22,
                        "TEXCOORD_0" : 23
                    },
                    "indices" : 24,
                    "material" : 3
                }
            ]
        },
        {
            "name" : "\u5e73\u9762.003",
            "primitives" : [
                {
                    "attributes" : {
                        "POSITION" : 25,
                        "NORMAL" : 26,
                        "TANGENT" : 27,
                        "TEXCOORD_0" : 28
                    },
                    "indices" : 24,
                    "material" : 4
                }
            ]
        },
        {
            "name" : "\u7403.001",
            "primitives" : [
                {
                    "attributes" : {
                        "POSITION" : 29,
                        "NORMAL" : 30,
                        "TANGENT" : 31,
                        "TEXCOORD_0" : 32
                    },
                    "indices" : 33,
                    "material" : 5
                }
            ]
        },
        {
            "name" : "\u7403.002",
            "primitives" : [
                {
                    "attributes" : {
                        "POSITION" : 34,
                        "NORMAL" : 35,
                        "TANGENT" : 36,
                        "TEXCOORD_0" : 37
                    },
                    "indices" : 38,
                    "material" : 1
                }
            ]
        }
    ],
    "accessors" : [
        {
            "bufferView" : 0,
            "componentType" : 5126,
            "count" : 296,
            "max" : [
                0.9999997019767761,
                1,
                0.9999994039535522
            ],
            "min" : [
                -0.9999990463256836,
                -4.371138828673793e-08,
                -0.9999987483024597
            ],
            "type" : "VEC3"
        },
        {
            "bufferView" : 1,
            "componentType" : 5126,
            "count" : 296,
            "type" : "VEC3"
        },
        {
            "bufferView" : 2,
            "componentType" : 5126,
            "count" : 296,
            "type" : "VEC4"
        },
        {
            "bufferView" : 3,
            "componentType" : 5126,
            "count" : 296,
            "type" : "VEC2"
        },
        {
            "bufferView" : 4,
            "componentType" : 5123,
            "count" : 1440,
            "type" : "SCALAR"
        },
        {
            "bufferView" : 5,
            "componentType" : 5126,
            "count" : 441,
            "max" : [
                0.44740328192710876,
                0.48123788833618164,
                0.5865482687950134
            ],
            "min" : [
                -0.4474031925201416,
                -0.4297614097595215,
                -0.5939316749572754
            ],
            "type" : "VEC3"
        },
        {
            "bufferView" : 6,
            "componentType" : 5126,
            "count" : 441,
            "type" : "VEC3"
        },
        {
            "bufferView" : 7,
            "componentType" : 5126,
            "count" : 441,
            "type" : "VEC4"
        },
        {
            "bufferView" : 8,
            "componentType" : 5126,
            "count" : 441,
            "type" : "VEC2"
        },
        {
            "bufferView" : 9,
            "componentType" : 5123,
            "count" : 2304,
            "type" : "SCALAR"
        },
        {
            "bufferView" : 10,
            "componentType" : 5126,
            "count" : 1305,
            "max" : [
                0.5212228894233704,
                0.15793071687221527,
                0.4921078383922577
            ],
            "min" : [
                -0.42189785838127136,
                -0.16947463154792786,
                -0.5356898307800293
            ],
            "type" : "VEC3"
        },
        {
            "bufferView" : 11,
            "componentType" : 5126,
            "count" : 1305,
            "type" : "VEC3"
        },
        {
            "bufferView" : 12,
            "componentType" : 5126,
            "count" : 1305,
            "type" : "VEC4"
        },
        {
            "bufferView" : 13,
            "componentType" : 5126,
            "count" : 1305,
            "type" : "VEC2"
        },
        {
            "bufferView" : 14,
            "componentType" : 5123,
            "count" : 6912,
            "type" : "SCALAR"
        },
        {
            "bufferView" : 15,
            "componentType" : 5126,
            "count" : 1305,
            "max" : [
                0.3727183938026428,
                0.2568037509918213,
                0.5758650302886963
            ],
            "min" : [
                -0.541169285774231,
                -0.23555073142051697,
                -0.42863112688064575
            ],
            "type" : "VEC3"
        },
        {
            "bufferView" : 16,
            "componentType" : 5126,
            "count" : 1305,
            "type" : "VEC3"
        },
        {
            "bufferView" : 17,
            "componentType" : 5126,
            "count" : 1305,
            "type" : "VEC4"
        },
        {
            "bufferView" : 18,
            "componentType" : 5126,
            "count" : 1305,
            "type" : "VEC2"
        },
        {
            "bufferView" : 19,
            "componentType" : 5123,
            "count" : 6912,
            "type" : "SCALAR"
        },
        {
            "bufferView" : 20,
            "componentType" : 5126,
            "count" : 162,
            "max" : [
                0.34729745984077454,
                0.6116738319396973,
                1.6031863689422607
            ],
            "min" : [
                -0.9375300407409668,
                -0.3472973704338074,
                1.2140167951583862
            ],
            "type" : "VEC3"
        },
        {
            "bufferView" : 21,
            "componentType" : 5126,
            "count" : 162,
            "type" : "VEC3"
        },
        {
            "bufferView" : 22,
            "componentType" : 5126,
            "count" : 162,
            "type" : "VEC4"
        },
        {
            "bufferView" : 23,
            "componentType" : 5126,
            "count" : 162,
            "type" : "VEC2"
        },
        {
            "bufferView" : 24,
            "componentType" : 5123,
            "count" : 768,
            "type" : "SCALAR"
        },
        {
            "bufferView" : 25,
            "componentType" : 5126,
            "count" : 162,
            "max" : [
                0.347297340631485,
                0.6318775415420532,
                3.193448305130005
            ],
            "min" : [
                -1.0542376041412354,
                -0.3472975492477417,
                2.9299981594085693
            ],
            "type" : "VEC3"
        },
        {
            "bufferView" : 26,
            "componentType" : 5126,
            "count" : 162,
            "type" : "VEC3"
        },
        {
            "bufferView" : 27,
            "componentType" : 5126,
            "count" : 162,
            "type" : "VEC4"
        },
        {
            "bufferView" : 28,
            "componentType" : 5126,
            "count" : 162,
            "type" : "VEC2"
        },
        {
            "bufferView" : 29,
            "componentType" : 5126,
            "count" : 263,
            "max" : [
                0.9807851314544678,
                -0.19509032368659973,
                0.9807849526405334
            ],
            "min" : [
                -0.9807847738265991,
                -1,
                -0.9807846546173096
            ],
            "type" : "VEC3"
        },
        {
            "bufferView" : 30,
            "componentType" : 5126,
            "count" : 263,
            "type" : "VEC3"
        },
        {
            "bufferView" : 31,
            "componentType" : 5126,
            "count" : 263,
            "type" : "VEC4"
        },
        {
            "bufferView" : 32,
            "componentType" : 5126,
            "count" : 263,
            "type" : "VEC2"
        },
        {
            "bufferView" : 33,
            "componentType" : 5123,
            "count" : 1248,
            "type" : "SCALAR"
        },
        {
            "bufferView" : 34,
            "componentType" : 5126,
            "count" : 66,
            "max" : [
                0.9999997019767761,
                -4.371138828673793e-08,
                0.9999994039535522
            ],
            "min" : [
                -0.9999990463256836,
                -0.19509032368659973,
                -0.9999987483024597
            ],
            "type" : "VEC3"
        },
        {
            "bufferView" : 35,
            "componentType" : 5126,
            "count" : 66,
            "type" : "VEC3"
        },
        {
            "bufferView" : 36,
            "componentType" : 5126,
            "count" : 66,
            "type" : "VEC4"
        },
        {
            "bufferView" : 37,
            "componentType" : 5126,
            "count" : 66,
            "type" : "VEC2"
        },
        {
            "bufferView" : 38,
            "componentType" : 5123,
            "count" : 192,
            "type" : "SCALAR"
        }
    ],
    "bufferViews" : [
        {
            "buffer" : 0,
            "byteLength" : 3552,
            "byteOffset" : 0
        },
        {
            "buffer" : 0,
            "byteLength" : 3552,
            "byteOffset" : 3552
        },
        {
            "buffer" : 0,
            "byteLength" : 4736,
            "byteOffset" : 7104
        },
        {
            "buffer" : 0,
            "byteLength" : 2368,
            "byteOffset" : 11840
        },
        {
            "buffer" : 0,
            "byteLength" : 2880,
            "byteOffset" : 14208
        },
        {
            "buffer" : 0,
            "byteLength" : 5292,
            "byteOffset" : 17088
        },
        {
            "buffer" : 0,
            "byteLength" : 5292,
            "byteOffset" : 22380
        },
        {
            "buffer" : 0,
            "byteLength" : 7056,
            "byteOffset" : 27672
        },
        {
            "buffer" : 0,
            "byteLength" : 3528,
            "byteOffset" : 34728
        },
        {
            "buffer" : 0,
            "byteLength" : 4608,
            "byteOffset" : 38256
        },
        {
            "buffer" : 0,
            "byteLength" : 15660,
            "byteOffset" : 42864
        },
        {
            "buffer" : 0,
            "byteLength" : 15660,
            "byteOffset" : 58524
        },
        {
            "buffer" : 0,
            "byteLength" : 20880,
            "byteOffset" : 74184
        },
        {
            "buffer" : 0,
            "byteLength" : 10440,
            "byteOffset" : 95064
        },
        {
            "buffer" : 0,
            "byteLength" : 13824,
            "byteOffset" : 105504
        },
        {
            "buffer" : 0,
            "byteLength" : 15660,
            "byteOffset" : 119328
        },
        {
            "buffer" : 0,
            "byteLength" : 15660,
            "byteOffset" : 134988
        },
        {
            "buffer" : 0,
            "byteLength" : 20880,
            "byteOffset" : 150648
        },
        {
            "buffer" : 0,
            "byteLength" : 10440,
            "byteOffset" : 171528
        },
        {
            "buffer" : 0,
            "byteLength" : 13824,
            "byteOffset" : 181968
        },
        {
            "buffer" : 0,
            "byteLength" : 1944,
            "byteOffset" : 195792
        },
        {
            "buffer" : 0,
            "byteLength" : 1944,
            "byteOffset" : 197736
        },
        {
            "buffer" : 0,
            "byteLength" : 2592,
            "byteOffset" : 199680
        },
        {
            "buffer" : 0,
            "byteLength" : 1296,
            "byteOffset" : 202272
        },
        {
            "buffer" : 0,
            "byteLength" : 1536,
            "byteOffset" : 203568
        },
        {
            "buffer" : 0,
            "byteLength" : 1944,
            "byteOffset" : 205104
        },
        {
            "buffer" : 0,
            "byteLength" : 1944,
            "byteOffset" : 207048
        },
        {
            "buffer" : 0,
            "byteLength" : 2592,
            "byteOffset" : 208992
        },
        {
            "buffer" : 0,
            "byteLength" : 1296,
            "byteOffset" : 211584
        },
        {
            "buffer" : 0,
            "byteLength" : 3156,
            "byteOffset" : 212880
        },
        {
            "buffer" : 0,
            "byteLength" : 3156,
            "byteOffset" : 216036
        },
        {
            "buffer" : 0,
            "byteLength" : 4208,
            "byteOffset" : 219192
        },
        {
            "buffer" : 0,
            "byteLength" : 2104,
            "byteOffset" : 223400
        },
        {
            "buffer" : 0,
            "byteLength" : 2496,
            "byteOffset" : 225504
        },
        {
            "buffer" : 0,
            "byteLength" : 792,
            "byteOffset" : 228000
        },
        {
            "buffer" : 0,
            "byteLength" : 792,
            "byteOffset" : 228792
        },
        {
            "buffer" : 0,
            "byteLength" : 1056,
            "byteOffset" : 229584
        },
        {
            "buffer" : 0,
            "byteLength" : 528,
            "byteOffset" : 230640
        },
        {
            "buffer" : 0,
            "byteLength" : 384,
            "byteOffset" : 231168
        }
    ],
    "buffers" : [
        {
            "byteLength" : 231552,
            "uri" : "data:application/octet-stream;base64,"
        }
    ]
}
